<svg width="3732" height="3785" viewBox="0 0 3732 3785" fill="none" xmlns="http://www.w3.org/2000/svg">
<g id="DaisySVG">
<path id="petal" d="M1471.93 1949.86C-180.323 2671.93 773.532 4319.19 1878.77 2339.14L1471.93 1949.86Z" fill="#C3B9DC"/>
<path id="petal_2" d="M1842.21 2278.8C1235.18 4083.13 3088.18 4286.29 2408.48 2231.86L1842.21 2278.8Z" fill="#C3B9DC"/>
<path id="petal_3" d="M2235.63 2324.8C3451.83 3596.56 4645.34 1993.51 2474.31 1907.05L2235.63 2324.8Z" fill="#C3B9DC" stroke="#C3B9DC"/>
<path id="petal-timer" d="M1322.79 2089.05C-434.642 2106.82 -4.04786 -8.76457 1575.69 1486.48L1322.79 2089.05Z" fill="#C3B9DC"/>
<path id="petal-stopwatch" d="M2170.08 1485.65C3032.46 -210.996 4486.31 1096 2545.83 2045.5L2170.08 1485.65Z" fill="#C3B9DC"/>
<path id="petal-alarm" d="M1453.59 1505.93C913.006 -240.527 2420.15 -614.633 2215.13 1496.6L1453.59 1505.93Z" fill="#C3B9DC"/>
<path id="center" d="M2677.33 1971.07C2677.33 2360.55 2522.79 2449.43 2086.21 2449.43C1649.63 2449.43 1275.33 2360.55 1275.33 1971.07C1275.33 1581.6 1555.59 1406.43 1992.17 1406.43C2428.76 1406.43 2677.33 1581.6 2677.33 1971.07Z" fill="#FCE15D"/>
</g>
</svg>
